<svg xmlns="http://www.w3.org/2000/svg" width="1100" height="660" viewBox="0 0 1100 660">
<rect width="100%" height="100%" fill="#ffffff"/>
<text x="92" y="34" font-size="22" font-family="Arial" font-weight="700" fill="#111827">Histograma da distribuicao de graus</text>
<text x="92" y="58" font-size="13" font-family="Arial" fill="#475569">51278 vertices; grau minimo 10; grau maximo 273; barras agregadas a cada 4 grau(s)</text>
<line x1="92" y1="582.0" x2="1058" y2="582.0" stroke="#e5e7eb"/>
<text x="82" y="586.0" font-size="11" font-family="Arial" text-anchor="end" fill="#475569">1</text>
<line x1="92" y1="482.8" x2="1058" y2="482.8" stroke="#e5e7eb"/>
<text x="82" y="486.8" font-size="11" font-family="Arial" text-anchor="end" fill="#475569">10^1</text>
<line x1="92" y1="383.6" x2="1058" y2="383.6" stroke="#e5e7eb"/>
<text x="82" y="387.6" font-size="11" font-family="Arial" text-anchor="end" fill="#475569">10^2</text>
<line x1="92" y1="284.4" x2="1058" y2="284.4" stroke="#e5e7eb"/>
<text x="82" y="288.4" font-size="11" font-family="Arial" text-anchor="end" fill="#475569">10^3</text>
<line x1="92" y1="185.2" x2="1058" y2="185.2" stroke="#e5e7eb"/>
<text x="82" y="189.2" font-size="11" font-family="Arial" text-anchor="end" fill="#475569">10^4</text>
<line x1="92" y1="86.0" x2="1058" y2="86.0" stroke="#e5e7eb"/>
<text x="82" y="90.0" font-size="11" font-family="Arial" text-anchor="end" fill="#475569">10^5</text>
<line x1="92.0" y1="86" x2="92.0" y2="582" stroke="#f1f5f9"/>
<line x1="92.0" y1="582" x2="92.0" y2="587" stroke="#334155"/>
<text x="92.0" y="603" font-size="11" font-family="Arial" text-anchor="middle" fill="#475569">10</text>
<line x1="252.4" y1="86" x2="252.4" y2="582" stroke="#f1f5f9"/>
<line x1="252.4" y1="582" x2="252.4" y2="587" stroke="#334155"/>
<text x="252.4" y="603" font-size="11" font-family="Arial" text-anchor="middle" fill="#475569">53.83</text>
<line x1="412.8" y1="86" x2="412.8" y2="582" stroke="#f1f5f9"/>
<line x1="412.8" y1="582" x2="412.8" y2="587" stroke="#334155"/>
<text x="412.8" y="603" font-size="11" font-family="Arial" text-anchor="middle" fill="#475569">97.67</text>
<line x1="573.2" y1="86" x2="573.2" y2="582" stroke="#f1f5f9"/>
<line x1="573.2" y1="582" x2="573.2" y2="587" stroke="#334155"/>
<text x="573.2" y="603" font-size="11" font-family="Arial" text-anchor="middle" fill="#475569">141.5</text>
<line x1="733.6" y1="86" x2="733.6" y2="582" stroke="#f1f5f9"/>
<line x1="733.6" y1="582" x2="733.6" y2="587" stroke="#334155"/>
<text x="733.6" y="603" font-size="11" font-family="Arial" text-anchor="middle" fill="#475569">185.33</text>
<line x1="894.0" y1="86" x2="894.0" y2="582" stroke="#f1f5f9"/>
<line x1="894.0" y1="582" x2="894.0" y2="587" stroke="#334155"/>
<text x="894.0" y="603" font-size="11" font-family="Arial" text-anchor="middle" fill="#475569">229.17</text>
<line x1="1054.3" y1="86" x2="1054.3" y2="582" stroke="#f1f5f9"/>
<line x1="1054.3" y1="582" x2="1054.3" y2="587" stroke="#334155"/>
<text x="1054.3" y="603" font-size="11" font-family="Arial" text-anchor="middle" fill="#475569">273</text>
<line x1="92" y1="582" x2="1058" y2="582" stroke="#111827" stroke-width="1.2"/>
<line x1="92" y1="86" x2="92" y2="582" stroke="#111827" stroke-width="1.2"/>
<text x="575.0" y="642" font-size="13" font-family="Arial" text-anchor="middle" fill="#111827">grau k</text>
<text x="18" y="334.0" font-size="13" font-family="Arial" text-anchor="middle" fill="#111827" transform="rotate(-90 18,334.0)">frequencia em escala log10</text>
<rect x="92.0" y="149.7" width="12.6" height="432.3" fill="#0f766e" opacity="0.84"><title>graus 10-13: 22783</title></rect>
<rect x="106.6" y="179.0" width="12.6" height="403.0" fill="#0f766e" opacity="0.84"><title>graus 14-17: 11544</title></rect>
<rect x="121.3" y="204.4" width="12.6" height="377.6" fill="#0f766e" opacity="0.84"><title>graus 18-21: 6401</title></rect>
<rect x="135.9" y="227.1" width="12.6" height="354.9" fill="#0f766e" opacity="0.84"><title>graus 22-25: 3785</title></rect>
<rect x="150.5" y="248.0" width="12.6" height="334.0" fill="#0f766e" opacity="0.84"><title>graus 26-29: 2326</title></rect>
<rect x="165.2" y="268.2" width="12.6" height="313.8" fill="#0f766e" opacity="0.84"><title>graus 30-33: 1456</title></rect>
<rect x="179.8" y="287.1" width="12.6" height="294.9" fill="#0f766e" opacity="0.84"><title>graus 34-37: 940</title></rect>
<rect x="194.5" y="307.2" width="12.6" height="274.8" fill="#0f766e" opacity="0.84"><title>graus 38-41: 589</title></rect>
<rect x="209.1" y="320.7" width="12.6" height="261.3" fill="#0f766e" opacity="0.84"><title>graus 42-45: 431</title></rect>
<rect x="223.7" y="342.9" width="12.6" height="239.1" fill="#0f766e" opacity="0.84"><title>graus 46-49: 257</title></rect>
<rect x="238.4" y="358.0" width="12.6" height="224.0" fill="#0f766e" opacity="0.84"><title>graus 50-53: 181</title></rect>
<rect x="253.0" y="369.1" width="12.6" height="212.9" fill="#0f766e" opacity="0.84"><title>graus 54-57: 140</title></rect>
<rect x="267.6" y="382.7" width="12.6" height="199.3" fill="#0f766e" opacity="0.84"><title>graus 58-61: 102</title></rect>
<rect x="282.3" y="397.2" width="12.6" height="184.8" fill="#0f766e" opacity="0.84"><title>graus 62-65: 73</title></rect>
<rect x="296.9" y="421.0" width="12.6" height="161.0" fill="#0f766e" opacity="0.84"><title>graus 66-69: 42</title></rect>
<rect x="311.5" y="417.1" width="12.6" height="164.9" fill="#0f766e" opacity="0.84"><title>graus 70-73: 46</title></rect>
<rect x="326.2" y="434.1" width="12.6" height="147.9" fill="#0f766e" opacity="0.84"><title>graus 74-77: 31</title></rect>
<rect x="340.8" y="438.4" width="12.6" height="143.6" fill="#0f766e" opacity="0.84"><title>graus 78-81: 28</title></rect>
<rect x="355.5" y="457.5" width="12.6" height="124.5" fill="#0f766e" opacity="0.84"><title>graus 82-85: 18</title></rect>
<rect x="370.1" y="462.6" width="12.6" height="119.4" fill="#0f766e" opacity="0.84"><title>graus 86-89: 16</title></rect>
<rect x="384.7" y="465.3" width="12.6" height="116.7" fill="#0f766e" opacity="0.84"><title>graus 90-93: 15</title></rect>
<rect x="399.4" y="459.9" width="12.6" height="122.1" fill="#0f766e" opacity="0.84"><title>graus 94-97: 17</title></rect>
<rect x="414.0" y="498.2" width="12.6" height="83.8" fill="#0f766e" opacity="0.84"><title>graus 98-101: 7</title></rect>
<rect x="428.6" y="487.3" width="12.6" height="94.7" fill="#0f766e" opacity="0.84"><title>graus 102-105: 9</title></rect>
<rect x="443.3" y="498.2" width="12.6" height="83.8" fill="#0f766e" opacity="0.84"><title>graus 106-109: 7</title></rect>
<rect x="457.9" y="522.3" width="12.6" height="59.7" fill="#0f766e" opacity="0.84"><title>graus 110-113: 4</title></rect>
<rect x="472.5" y="534.7" width="12.6" height="47.3" fill="#0f766e" opacity="0.84"><title>graus 114-117: 3</title></rect>
<rect x="487.2" y="512.7" width="12.6" height="69.3" fill="#0f766e" opacity="0.84"><title>graus 118-121: 5</title></rect>
<rect x="501.8" y="512.7" width="12.6" height="69.3" fill="#0f766e" opacity="0.84"><title>graus 122-125: 5</title></rect>
<rect x="516.5" y="552.1" width="12.6" height="29.9" fill="#0f766e" opacity="0.84"><title>graus 126-129: 2</title></rect>
<rect x="531.1" y="552.1" width="12.6" height="29.9" fill="#0f766e" opacity="0.84"><title>graus 130-133: 2</title></rect>
<rect x="545.7" y="552.1" width="12.6" height="29.9" fill="#0f766e" opacity="0.84"><title>graus 134-137: 2</title></rect>
<rect x="575.0" y="582.0" width="12.6" height="0.0" fill="#0f766e" opacity="0.84"><title>graus 142-145: 1</title></rect>
<rect x="589.6" y="582.0" width="12.6" height="0.0" fill="#0f766e" opacity="0.84"><title>graus 146-149: 1</title></rect>
<rect x="604.3" y="552.1" width="12.6" height="29.9" fill="#0f766e" opacity="0.84"><title>graus 150-153: 2</title></rect>
<rect x="633.5" y="582.0" width="12.6" height="0.0" fill="#0f766e" opacity="0.84"><title>graus 158-161: 1</title></rect>
<rect x="648.2" y="552.1" width="12.6" height="29.9" fill="#0f766e" opacity="0.84"><title>graus 162-165: 2</title></rect>
<rect x="794.5" y="582.0" width="12.6" height="0.0" fill="#0f766e" opacity="0.84"><title>graus 202-205: 1</title></rect>
<rect x="809.2" y="582.0" width="12.6" height="0.0" fill="#0f766e" opacity="0.84"><title>graus 206-209: 1</title></rect>
<rect x="999.5" y="582.0" width="12.6" height="0.0" fill="#0f766e" opacity="0.84"><title>graus 258-261: 1</title></rect>
<rect x="1043.4" y="582.0" width="12.6" height="0.0" fill="#0f766e" opacity="0.84"><title>graus 270-273: 1</title></rect>
<text x="760" y="106" font-size="12" font-family="Arial" fill="#475569">Eixo Y em log10 para revelar a cauda da distribuicao.</text>
</svg>