<svg xmlns="http://www.w3.org/2000/svg" width="1100" height="660" viewBox="0 0 1100 660">
<rect width="100%" height="100%" fill="#ffffff"/>
<text x="92" y="34" font-size="22" font-family="Arial" font-weight="700" fill="#111827">Grafico log(P(k)) versus log(k)</text>
<text x="92" y="58" font-size="13" font-family="Arial" fill="#475569">Frequencia pontual dos graus; usado como evidencia visual, nao como prova estatistica.</text>
<line x1="92" y1="582.0" x2="1058" y2="582.0" stroke="#e5e7eb"/>
<text x="82" y="586.0" font-size="11" font-family="Arial" text-anchor="end" fill="#475569">-4.71</text>
<line x1="92" y1="482.8" x2="1058" y2="482.8" stroke="#e5e7eb"/>
<text x="82" y="486.8" font-size="11" font-family="Arial" text-anchor="end" fill="#475569">-3.93</text>
<line x1="92" y1="383.6" x2="1058" y2="383.6" stroke="#e5e7eb"/>
<text x="82" y="387.6" font-size="11" font-family="Arial" text-anchor="end" fill="#475569">-3.15</text>
<line x1="92" y1="284.4" x2="1058" y2="284.4" stroke="#e5e7eb"/>
<text x="82" y="288.4" font-size="11" font-family="Arial" text-anchor="end" fill="#475569">-2.38</text>
<line x1="92" y1="185.2" x2="1058" y2="185.2" stroke="#e5e7eb"/>
<text x="82" y="189.2" font-size="11" font-family="Arial" text-anchor="end" fill="#475569">-1.6</text>
<line x1="92" y1="86.0" x2="1058" y2="86.0" stroke="#e5e7eb"/>
<text x="82" y="90.0" font-size="11" font-family="Arial" text-anchor="end" fill="#475569">-0.82</text>
<line x1="92.0" y1="86" x2="92.0" y2="582" stroke="#f1f5f9"/>
<line x1="92.0" y1="582" x2="92.0" y2="587" stroke="#334155"/>
<text x="92.0" y="603" font-size="11" font-family="Arial" text-anchor="middle" fill="#475569">1</text>
<line x1="285.2" y1="86" x2="285.2" y2="582" stroke="#f1f5f9"/>
<line x1="285.2" y1="582" x2="285.2" y2="587" stroke="#334155"/>
<text x="285.2" y="603" font-size="11" font-family="Arial" text-anchor="middle" fill="#475569">1.29</text>
<line x1="478.4" y1="86" x2="478.4" y2="582" stroke="#f1f5f9"/>
<line x1="478.4" y1="582" x2="478.4" y2="587" stroke="#334155"/>
<text x="478.4" y="603" font-size="11" font-family="Arial" text-anchor="middle" fill="#475569">1.57</text>
<line x1="671.6" y1="86" x2="671.6" y2="582" stroke="#f1f5f9"/>
<line x1="671.6" y1="582" x2="671.6" y2="587" stroke="#334155"/>
<text x="671.6" y="603" font-size="11" font-family="Arial" text-anchor="middle" fill="#475569">1.86</text>
<line x1="864.8" y1="86" x2="864.8" y2="582" stroke="#f1f5f9"/>
<line x1="864.8" y1="582" x2="864.8" y2="587" stroke="#334155"/>
<text x="864.8" y="603" font-size="11" font-family="Arial" text-anchor="middle" fill="#475569">2.15</text>
<line x1="1058.0" y1="86" x2="1058.0" y2="582" stroke="#f1f5f9"/>
<line x1="1058.0" y1="582" x2="1058.0" y2="587" stroke="#334155"/>
<text x="1058.0" y="603" font-size="11" font-family="Arial" text-anchor="middle" fill="#475569">2.44</text>
<line x1="92" y1="582" x2="1058" y2="582" stroke="#111827" stroke-width="1.2"/>
<line x1="92" y1="86" x2="92" y2="582" stroke="#111827" stroke-width="1.2"/>
<text x="575.0" y="642" font-size="13" font-family="Arial" text-anchor="middle" fill="#111827">log10(k)</text>
<text x="18" y="334.0" font-size="13" font-family="Arial" text-anchor="middle" fill="#111827" transform="rotate(-90 18,334.0)">log10(P(k))</text>
<line x1="92.0" y1="50.3" x2="1058.0" y2="712.3" stroke="#dc2626" stroke-width="2.4" stroke-dasharray="7 5"/>
<text x="760" y="106" font-size="12" font-family="Arial" fill="#334155">ajuste: inclinacao -3.614; R2 0.957</text>
<circle cx="92.0" cy="86.0" r="3.1" fill="#7c3aed" opacity="0.72"/>
<circle cx="119.8" cy="100.5" r="3.1" fill="#7c3aed" opacity="0.72"/>
<circle cx="145.3" cy="112.3" r="3.1" fill="#7c3aed" opacity="0.72"/>
<circle cx="168.6" cy="119.4" r="3.1" fill="#7c3aed" opacity="0.72"/>
<circle cx="190.3" cy="128.8" r="3.1" fill="#7c3aed" opacity="0.72"/>
<circle cx="210.4" cy="137.8" r="3.1" fill="#7c3aed" opacity="0.72"/>
<circle cx="229.3" cy="145.4" r="3.1" fill="#7c3aed" opacity="0.72"/>
<circle cx="247.0" cy="154.1" r="3.1" fill="#7c3aed" opacity="0.72"/>
<circle cx="263.7" cy="161.7" r="3.1" fill="#7c3aed" opacity="0.72"/>
<circle cx="279.5" cy="170.5" r="3.1" fill="#7c3aed" opacity="0.72"/>
<circle cx="294.5" cy="179.7" r="3.1" fill="#7c3aed" opacity="0.72"/>
<circle cx="308.7" cy="184.4" r="3.1" fill="#7c3aed" opacity="0.72"/>
<circle cx="322.3" cy="190.0" r="3.1" fill="#7c3aed" opacity="0.72"/>
<circle cx="335.3" cy="198.9" r="3.1" fill="#7c3aed" opacity="0.72"/>
<circle cx="347.7" cy="210.4" r="3.1" fill="#7c3aed" opacity="0.72"/>
<circle cx="359.7" cy="214.0" r="3.1" fill="#7c3aed" opacity="0.72"/>
<circle cx="371.1" cy="219.7" r="3.1" fill="#7c3aed" opacity="0.72"/>
<circle cx="382.1" cy="228.4" r="3.1" fill="#7c3aed" opacity="0.72"/>
<circle cx="392.8" cy="234.7" r="3.1" fill="#7c3aed" opacity="0.72"/>
<circle cx="403.0" cy="236.7" r="3.1" fill="#7c3aed" opacity="0.72"/>
<circle cx="412.9" cy="244.9" r="3.1" fill="#7c3aed" opacity="0.72"/>
<circle cx="422.5" cy="252.3" r="3.1" fill="#7c3aed" opacity="0.72"/>
<circle cx="431.8" cy="260.3" r="3.1" fill="#7c3aed" opacity="0.72"/>
<circle cx="440.8" cy="266.5" r="3.1" fill="#7c3aed" opacity="0.72"/>
<circle cx="449.5" cy="275.3" r="3.1" fill="#7c3aed" opacity="0.72"/>
<circle cx="458.0" cy="278.2" r="3.1" fill="#7c3aed" opacity="0.72"/>
<circle cx="466.2" cy="278.2" r="3.1" fill="#7c3aed" opacity="0.72"/>
<circle cx="474.2" cy="287.5" r="3.1" fill="#7c3aed" opacity="0.72"/>
<circle cx="482.0" cy="296.6" r="3.1" fill="#7c3aed" opacity="0.72"/>
<circle cx="489.6" cy="301.3" r="3.1" fill="#7c3aed" opacity="0.72"/>
<circle cx="497.0" cy="314.6" r="3.1" fill="#7c3aed" opacity="0.72"/>
<circle cx="504.2" cy="311.6" r="3.1" fill="#7c3aed" opacity="0.72"/>
<circle cx="511.2" cy="323.7" r="3.1" fill="#7c3aed" opacity="0.72"/>
<circle cx="518.1" cy="313.7" r="3.1" fill="#7c3aed" opacity="0.72"/>
<circle cx="524.8" cy="327.0" r="3.1" fill="#7c3aed" opacity="0.72"/>
<circle cx="531.4" cy="328.1" r="3.1" fill="#7c3aed" opacity="0.72"/>
<circle cx="537.8" cy="341.4" r="3.1" fill="#7c3aed" opacity="0.72"/>
<circle cx="544.1" cy="346.7" r="3.1" fill="#7c3aed" opacity="0.72"/>
<circle cx="550.2" cy="352.5" r="3.1" fill="#7c3aed" opacity="0.72"/>
<circle cx="556.2" cy="368.8" r="3.1" fill="#7c3aed" opacity="0.72"/>
<circle cx="562.1" cy="359.1" r="3.1" fill="#7c3aed" opacity="0.72"/>
<circle cx="567.9" cy="367.6" r="3.1" fill="#7c3aed" opacity="0.72"/>
<circle cx="573.6" cy="376.3" r="3.1" fill="#7c3aed" opacity="0.72"/>
<circle cx="579.2" cy="383.5" r="3.1" fill="#7c3aed" opacity="0.72"/>
<circle cx="584.6" cy="379.1" r="3.1" fill="#7c3aed" opacity="0.72"/>
<circle cx="590.0" cy="388.4" r="3.1" fill="#7c3aed" opacity="0.72"/>
<circle cx="595.3" cy="391.8" r="3.1" fill="#7c3aed" opacity="0.72"/>
<circle cx="600.4" cy="382.0" r="3.1" fill="#7c3aed" opacity="0.72"/>
<circle cx="605.5" cy="406.0" r="3.1" fill="#7c3aed" opacity="0.72"/>
<circle cx="610.5" cy="395.5" r="3.1" fill="#7c3aed" opacity="0.72"/>
<circle cx="615.4" cy="410.8" r="3.1" fill="#7c3aed" opacity="0.72"/>
<circle cx="620.2" cy="399.5" r="3.1" fill="#7c3aed" opacity="0.72"/>
<circle cx="625.0" cy="418.9" r="3.1" fill="#7c3aed" opacity="0.72"/>
<circle cx="629.7" cy="408.3" r="3.1" fill="#7c3aed" opacity="0.72"/>
<circle cx="634.3" cy="432.0" r="3.1" fill="#7c3aed" opacity="0.72"/>
<circle cx="638.8" cy="428.4" r="3.1" fill="#7c3aed" opacity="0.72"/>
<circle cx="643.2" cy="460.3" r="3.1" fill="#7c3aed" opacity="0.72"/>
<circle cx="647.6" cy="460.3" r="3.1" fill="#7c3aed" opacity="0.72"/>
<circle cx="652.0" cy="435.8" r="3.1" fill="#7c3aed" opacity="0.72"/>
<circle cx="656.2" cy="454.5" r="3.1" fill="#7c3aed" opacity="0.72"/>
<circle cx="660.4" cy="444.4" r="3.1" fill="#7c3aed" opacity="0.72"/>
<circle cx="664.6" cy="435.8" r="3.1" fill="#7c3aed" opacity="0.72"/>
<circle cx="668.7" cy="454.5" r="3.1" fill="#7c3aed" opacity="0.72"/>
<circle cx="672.7" cy="454.5" r="3.1" fill="#7c3aed" opacity="0.72"/>
<circle cx="676.7" cy="460.3" r="3.1" fill="#7c3aed" opacity="0.72"/>
<circle cx="680.6" cy="454.5" r="3.1" fill="#7c3aed" opacity="0.72"/>
<circle cx="684.5" cy="492.9" r="3.1" fill="#7c3aed" opacity="0.72"/>
<circle cx="688.3" cy="474.2" r="3.1" fill="#7c3aed" opacity="0.72"/>
<circle cx="692.0" cy="482.8" r="3.1" fill="#7c3aed" opacity="0.72"/>
<circle cx="695.8" cy="466.8" r="3.1" fill="#7c3aed" opacity="0.72"/>
<circle cx="699.4" cy="474.2" r="3.1" fill="#7c3aed" opacity="0.72"/>
<circle cx="703.1" cy="474.2" r="3.1" fill="#7c3aed" opacity="0.72"/>
<circle cx="706.7" cy="492.9" r="3.1" fill="#7c3aed" opacity="0.72"/>
<circle cx="710.2" cy="521.2" r="3.1" fill="#7c3aed" opacity="0.72"/>
<circle cx="713.7" cy="474.2" r="3.1" fill="#7c3aed" opacity="0.72"/>
<circle cx="717.2" cy="521.2" r="3.1" fill="#7c3aed" opacity="0.72"/>
<circle cx="720.6" cy="482.8" r="3.1" fill="#7c3aed" opacity="0.72"/>
<circle cx="723.9" cy="505.2" r="3.1" fill="#7c3aed" opacity="0.72"/>
<circle cx="727.3" cy="521.2" r="3.1" fill="#7c3aed" opacity="0.72"/>
<circle cx="730.6" cy="521.2" r="3.1" fill="#7c3aed" opacity="0.72"/>
<circle cx="733.8" cy="482.8" r="3.1" fill="#7c3aed" opacity="0.72"/>
<circle cx="737.1" cy="521.2" r="3.1" fill="#7c3aed" opacity="0.72"/>
<circle cx="740.3" cy="505.2" r="3.1" fill="#7c3aed" opacity="0.72"/>
<circle cx="743.4" cy="543.6" r="3.1" fill="#7c3aed" opacity="0.72"/>
<circle cx="746.6" cy="466.8" r="3.1" fill="#7c3aed" opacity="0.72"/>
<circle cx="749.6" cy="543.6" r="3.1" fill="#7c3aed" opacity="0.72"/>
<circle cx="755.7" cy="474.2" r="3.1" fill="#7c3aed" opacity="0.72"/>
<circle cx="758.7" cy="543.6" r="3.1" fill="#7c3aed" opacity="0.72"/>
<circle cx="761.7" cy="543.6" r="3.1" fill="#7c3aed" opacity="0.72"/>
<circle cx="764.6" cy="543.6" r="3.1" fill="#7c3aed" opacity="0.72"/>
<circle cx="767.5" cy="582.0" r="3.1" fill="#7c3aed" opacity="0.72"/>
<circle cx="770.4" cy="505.2" r="3.1" fill="#7c3aed" opacity="0.72"/>
<circle cx="773.3" cy="505.2" r="3.1" fill="#7c3aed" opacity="0.72"/>
<circle cx="778.9" cy="582.0" r="3.1" fill="#7c3aed" opacity="0.72"/>
<circle cx="781.6" cy="543.6" r="3.1" fill="#7c3aed" opacity="0.72"/>
<circle cx="784.4" cy="543.6" r="3.1" fill="#7c3aed" opacity="0.72"/>
<circle cx="787.1" cy="521.2" r="3.1" fill="#7c3aed" opacity="0.72"/>
<circle cx="792.5" cy="543.6" r="3.1" fill="#7c3aed" opacity="0.72"/>
<circle cx="795.1" cy="582.0" r="3.1" fill="#7c3aed" opacity="0.72"/>
<circle cx="800.3" cy="582.0" r="3.1" fill="#7c3aed" opacity="0.72"/>
<circle cx="802.9" cy="582.0" r="3.1" fill="#7c3aed" opacity="0.72"/>
<circle cx="805.5" cy="543.6" r="3.1" fill="#7c3aed" opacity="0.72"/>
<circle cx="813.0" cy="582.0" r="3.1" fill="#7c3aed" opacity="0.72"/>
<circle cx="817.9" cy="582.0" r="3.1" fill="#7c3aed" opacity="0.72"/>
<circle cx="820.3" cy="521.2" r="3.1" fill="#7c3aed" opacity="0.72"/>
<circle cx="822.7" cy="582.0" r="3.1" fill="#7c3aed" opacity="0.72"/>
<circle cx="825.1" cy="582.0" r="3.1" fill="#7c3aed" opacity="0.72"/>
<circle cx="827.5" cy="582.0" r="3.1" fill="#7c3aed" opacity="0.72"/>
<circle cx="829.8" cy="543.6" r="3.1" fill="#7c3aed" opacity="0.72"/>
<circle cx="836.7" cy="582.0" r="3.1" fill="#7c3aed" opacity="0.72"/>
<circle cx="839.0" cy="582.0" r="3.1" fill="#7c3aed" opacity="0.72"/>
<circle cx="843.5" cy="582.0" r="3.1" fill="#7c3aed" opacity="0.72"/>
<circle cx="845.7" cy="582.0" r="3.1" fill="#7c3aed" opacity="0.72"/>
<circle cx="850.1" cy="582.0" r="3.1" fill="#7c3aed" opacity="0.72"/>
<circle cx="854.4" cy="582.0" r="3.1" fill="#7c3aed" opacity="0.72"/>
<circle cx="867.1" cy="582.0" r="3.1" fill="#7c3aed" opacity="0.72"/>
<circle cx="879.1" cy="582.0" r="3.1" fill="#7c3aed" opacity="0.72"/>
<circle cx="883.1" cy="543.6" r="3.1" fill="#7c3aed" opacity="0.72"/>
<circle cx="901.9" cy="582.0" r="3.1" fill="#7c3aed" opacity="0.72"/>
<circle cx="905.6" cy="582.0" r="3.1" fill="#7c3aed" opacity="0.72"/>
<circle cx="910.9" cy="582.0" r="3.1" fill="#7c3aed" opacity="0.72"/>
<circle cx="970.0" cy="582.0" r="3.1" fill="#7c3aed" opacity="0.72"/>
<circle cx="977.2" cy="582.0" r="3.1" fill="#7c3aed" opacity="0.72"/>
<circle cx="1043.7" cy="582.0" r="3.1" fill="#7c3aed" opacity="0.72"/>
<circle cx="1058.0" cy="582.0" r="3.1" fill="#7c3aed" opacity="0.72"/>
</svg>