<svg xmlns="http://www.w3.org/2000/svg" width="1200" height="680" viewBox="0 0 1200 680">
<rect width="100%" height="100%" fill="#ffffff"/>
<text x="76" y="34" font-size="22" font-family="Arial" font-weight="700" fill="#111827">Robustez apos remocao de 5% dos vertices</text>
<text x="76" y="58" font-size="13" font-family="Arial" fill="#475569">Boxplots das remocoes aleatorias; ponto vermelho mostra ataque aos vertices de maior grau.</text>
<rect x="770" y="82" width="18" height="18" fill="#bfdbfe" stroke="#1d4ed8"/><text x="796" y="96" font-size="13" font-family="Arial" fill="#334155">remocoes aleatorias</text>
<circle cx="962" cy="91" r="7" fill="#dc2626"/><text x="978" y="96" font-size="13" font-family="Arial" fill="#334155">ataque por grau</text>
<rect x="76.0" y="118" width="245.0" height="466" fill="#f8fafc" stroke="#e2e8f0"/>
<line x1="76.0" y1="584.0" x2="321.0" y2="584.0" stroke="#e5e7eb"/>
<text x="81.0" y="580.0" font-size="10" font-family="Arial" fill="#64748b">48.637</text>
<line x1="76.0" y1="467.5" x2="321.0" y2="467.5" stroke="#e5e7eb"/>
<text x="81.0" y="463.5" font-size="10" font-family="Arial" fill="#64748b">48.651</text>
<line x1="76.0" y1="351.0" x2="321.0" y2="351.0" stroke="#e5e7eb"/>
<text x="81.0" y="347.0" font-size="10" font-family="Arial" fill="#64748b">48.664</text>
<line x1="76.0" y1="234.5" x2="321.0" y2="234.5" stroke="#e5e7eb"/>
<text x="81.0" y="230.5" font-size="10" font-family="Arial" fill="#64748b">48.677</text>
<line x1="76.0" y1="118.0" x2="321.0" y2="118.0" stroke="#e5e7eb"/>
<text x="81.0" y="114.0" font-size="10" font-family="Arial" fill="#64748b">48.691</text>
<line x1="198.5" y1="150.1" x2="198.5" y2="298.6" stroke="#334155" stroke-width="2"/>
<line x1="171.2" y1="150.1" x2="225.8" y2="150.1" stroke="#334155" stroke-width="2"/>
<line x1="171.2" y1="298.6" x2="225.8" y2="298.6" stroke="#334155" stroke-width="2"/>
<rect x="157.5" y="185.1" width="82.0" height="17.5" fill="#bfdbfe" stroke="#1d4ed8" stroke-width="2" opacity="0.92"><title>aleatoria: Q1=48681.0000; mediana=48682.0000; Q3=48683.0000</title></rect>
<line x1="157.5" y1="193.8" x2="239.5" y2="193.8" stroke="#1e3a8a" stroke-width="3"/>
<circle cx="265.7" cy="551.9" r="7" fill="#dc2626"><title>ataque por grau: 48641.0000</title></circle>
<text x="198.5" y="628" font-size="13" font-family="Arial" text-anchor="middle" fill="#111827">Maior componente</text>
<text x="198.5" y="649" font-size="11" font-family="Arial" text-anchor="middle" fill="#475569">mediana 48.682; ataque 48.641</text>
<rect x="355.0" y="118" width="245.0" height="466" fill="#f8fafc" stroke="#e2e8f0"/>
<line x1="355.0" y1="584.0" x2="600.0" y2="584.0" stroke="#e5e7eb"/>
<text x="360.0" y="580.0" font-size="10" font-family="Arial" fill="#64748b">0</text>
<line x1="355.0" y1="467.5" x2="600.0" y2="467.5" stroke="#e5e7eb"/>
<text x="360.0" y="463.5" font-size="10" font-family="Arial" fill="#64748b">11.28</text>
<line x1="355.0" y1="351.0" x2="600.0" y2="351.0" stroke="#e5e7eb"/>
<text x="360.0" y="347.0" font-size="10" font-family="Arial" fill="#64748b">22.56</text>
<line x1="355.0" y1="234.5" x2="600.0" y2="234.5" stroke="#e5e7eb"/>
<text x="360.0" y="230.5" font-size="10" font-family="Arial" fill="#64748b">33.84</text>
<line x1="355.0" y1="118.0" x2="600.0" y2="118.0" stroke="#e5e7eb"/>
<text x="360.0" y="114.0" font-size="10" font-family="Arial" fill="#64748b">45.12</text>
<line x1="477.5" y1="542.7" x2="477.5" y2="553.0" stroke="#334155" stroke-width="2"/>
<line x1="450.2" y1="542.7" x2="504.8" y2="542.7" stroke="#334155" stroke-width="2"/>
<line x1="450.2" y1="553.0" x2="504.8" y2="553.0" stroke="#334155" stroke-width="2"/>
<rect x="436.5" y="553.0" width="82.0" height="3.0" fill="#bfdbfe" stroke="#1d4ed8" stroke-width="2" opacity="0.92"><title>aleatoria: Q1=3.0000; mediana=3.0000; Q3=3.0000</title></rect>
<line x1="436.5" y1="553.0" x2="518.5" y2="553.0" stroke="#1e3a8a" stroke-width="3"/>
<circle cx="544.7" cy="150.2" r="7" fill="#dc2626"><title>ataque por grau: 42.0000</title></circle>
<text x="477.5" y="628" font-size="13" font-family="Arial" text-anchor="middle" fill="#111827">Componentes</text>
<text x="477.5" y="649" font-size="11" font-family="Arial" text-anchor="middle" fill="#475569">mediana 3; ataque 42</text>
<rect x="634.0" y="118" width="245.0" height="466" fill="#f8fafc" stroke="#e2e8f0"/>
<line x1="634.0" y1="584.0" x2="879.0" y2="584.0" stroke="#e5e7eb"/>
<text x="639.0" y="580.0" font-size="10" font-family="Arial" fill="#64748b">0</text>
<line x1="634.0" y1="467.5" x2="879.0" y2="467.5" stroke="#e5e7eb"/>
<text x="639.0" y="463.5" font-size="10" font-family="Arial" fill="#64748b">2.1e-04</text>
<line x1="634.0" y1="351.0" x2="879.0" y2="351.0" stroke="#e5e7eb"/>
<text x="639.0" y="347.0" font-size="10" font-family="Arial" fill="#64748b">4.2e-04</text>
<line x1="634.0" y1="234.5" x2="879.0" y2="234.5" stroke="#e5e7eb"/>
<text x="639.0" y="230.5" font-size="10" font-family="Arial" fill="#64748b">6.3e-04</text>
<line x1="634.0" y1="118.0" x2="879.0" y2="118.0" stroke="#e5e7eb"/>
<text x="639.0" y="114.0" font-size="10" font-family="Arial" fill="#64748b">8.4e-04</text>
<line x1="756.5" y1="584.0" x2="756.5" y2="584.0" stroke="#334155" stroke-width="2"/>
<line x1="729.2" y1="584.0" x2="783.8" y2="584.0" stroke="#334155" stroke-width="2"/>
<line x1="729.2" y1="584.0" x2="783.8" y2="584.0" stroke="#334155" stroke-width="2"/>
<rect x="715.5" y="584.0" width="82.0" height="3.0" fill="#bfdbfe" stroke="#1d4ed8" stroke-width="2" opacity="0.92"><title>aleatoria: Q1=0.0000; mediana=0.0000; Q3=0.0000</title></rect>
<line x1="715.5" y1="584.0" x2="797.5" y2="584.0" stroke="#1e3a8a" stroke-width="3"/>
<circle cx="823.7" cy="152.5" r="7" fill="#dc2626"><title>ataque por grau: 0.0008</title></circle>
<text x="756.5" y="628" font-size="13" font-family="Arial" text-anchor="middle" fill="#111827">Fracao isolada</text>
<text x="756.5" y="649" font-size="11" font-family="Arial" text-anchor="middle" fill="#475569">mediana 0; ataque 7.8e-04</text>
<rect x="913.0" y="118" width="245.0" height="466" fill="#f8fafc" stroke="#e2e8f0"/>
<line x1="913.0" y1="584.0" x2="1158.0" y2="584.0" stroke="#e5e7eb"/>
<text x="918.0" y="580.0" font-size="10" font-family="Arial" fill="#64748b">5.49</text>
<line x1="913.0" y1="467.5" x2="1158.0" y2="467.5" stroke="#e5e7eb"/>
<text x="918.0" y="463.5" font-size="10" font-family="Arial" fill="#64748b">5.75</text>
<line x1="913.0" y1="351.0" x2="1158.0" y2="351.0" stroke="#e5e7eb"/>
<text x="918.0" y="347.0" font-size="10" font-family="Arial" fill="#64748b">6</text>
<line x1="913.0" y1="234.5" x2="1158.0" y2="234.5" stroke="#e5e7eb"/>
<text x="918.0" y="230.5" font-size="10" font-family="Arial" fill="#64748b">6.25</text>
<line x1="913.0" y1="118.0" x2="1158.0" y2="118.0" stroke="#e5e7eb"/>
<text x="918.0" y="114.0" font-size="10" font-family="Arial" fill="#64748b">6.5</text>
<line x1="1035.5" y1="150.1" x2="1035.5" y2="551.9" stroke="#334155" stroke-width="2"/>
<line x1="1008.2" y1="150.1" x2="1062.8" y2="150.1" stroke="#334155" stroke-width="2"/>
<line x1="1008.2" y1="551.9" x2="1062.8" y2="551.9" stroke="#334155" stroke-width="2"/>
<rect x="994.5" y="303.9" width="82.0" height="106.6" fill="#bfdbfe" stroke="#1d4ed8" stroke-width="2" opacity="0.92"><title>aleatoria: Q1=5.8697; mediana=5.9591; Q3=6.1002</title></rect>
<line x1="994.5" y1="369.1" x2="1076.5" y2="369.1" stroke="#1e3a8a" stroke-width="3"/>
<circle cx="1102.7" cy="179.4" r="7" fill="#dc2626"><title>ataque por grau: 6.3694</title></circle>
<text x="1035.5" y="628" font-size="13" font-family="Arial" text-anchor="middle" fill="#111827">Distancia media</text>
<text x="1035.5" y="649" font-size="11" font-family="Arial" text-anchor="middle" fill="#475569">mediana 5.96; ataque 6.37</text>
</svg>